<svg width="174" height="118" viewBox="0 0 174 118" fill="none" xmlns="http://www.w3.org/2000/svg">
<path d="M29.232 55.1L23.088 68.06C22.192 69.788 21.072 70.652 19.728 70.652C18.416 70.652 17.312 69.74 16.416 67.916L10.176 55.1V75.5H3.504V41.324H10.08L19.728 61.052L29.328 41.324H35.904V75.5H29.232V55.1ZM62.4263 48.092L52.0103 78.572C51.5303 79.948 50.9063 81.02 50.1383 81.788C48.8583 83.068 47.0663 83.708 44.7623 83.708H41.8343V78.092H43.7543C44.6503 78.092 45.3063 77.932 45.7223 77.612C46.1703 77.324 46.5543 76.732 46.8743 75.836L47.3543 74.492L39.0983 48.092H45.6743L50.5703 67.148L55.8503 48.092H62.4263Z" fill="white"/>
<path d="M156.792 34.4166H73.2082C70.4928 34.4166 68.2915 36.6179 68.2915 39.3333V98.3333C68.2915 101.049 70.4928 103.25 73.2082 103.25H156.792C159.507 103.25 161.708 101.049 161.708 98.3333V39.3333C161.708 36.6179 159.507 34.4166 156.792 34.4166Z" stroke="white" stroke-width="2"/>
<path d="M115 34.4167L149.416 14.75M112.541 34.4167L80.583 14.75M153.5 43.25V58" stroke="white" stroke-width="2" stroke-linecap="round" stroke-linejoin="round"/>
<path d="M158.833 68.9167C158.833 66.2013 156.632 64 153.917 64C151.201 64 149 66.2013 149 68.9167C149 71.6321 151.201 73.8333 153.917 73.8333C156.632 73.8333 158.833 71.6321 158.833 68.9167Z" fill="white"/>
<path d="M107.208 61.776H98.04V90H91.368V61.776H82.248V55.824H107.208V61.776ZM136.166 55.824L125.414 88.08C124.838 89.552 123.814 90.288 122.342 90.288C120.806 90.288 119.75 89.552 119.174 88.08L108.566 55.824H115.478L122.342 78.096L129.206 55.824H136.166Z" fill="white"/>
</svg>
